<svg width="37" height="37" viewBox="0 0 37 37" fill="none" xmlns="http://www.w3.org/2000/svg">
<path id="Icon" d="M17.625 6.25H18.3852C23.7179 6.25 26.3842 6.25 27.3964 7.20776C28.2713 8.03564 28.659 9.25524 28.4228 10.4364C28.1495 11.8028 25.9727 13.3425 21.619 16.4219L14.506 21.4531C10.1523 24.5325 7.97548 26.0722 7.70221 27.4386C7.466 28.6198 7.85373 29.8394 8.72863 30.6672C9.74079 31.625 12.4071 31.625 17.7398 31.625H19.375M11.5 6.25C11.5 9.14949 9.14949 11.5 6.25 11.5C3.35051 11.5 1 9.14949 1 6.25C1 3.35051 3.35051 1 6.25 1C9.14949 1 11.5 3.35051 11.5 6.25ZM36 30.75C36 33.6495 33.6495 36 30.75 36C27.8505 36 25.5 33.6495 25.5 30.75C25.5 27.8505 27.8505 25.5 30.75 25.5C33.6495 25.5 36 27.8505 36 30.75Z" stroke="#60A547" stroke-width="2" stroke-linecap="round" stroke-linejoin="round"/>
</svg>
