<svg width="34" height="37" viewBox="0 0 34 37" fill="none" xmlns="http://www.w3.org/2000/svg">
<g id="Icon">
<path d="M1 15H32.5V12.9C32.5 9.95972 32.5 8.48959 31.9278 7.36655C31.4244 6.3787 30.6213 5.57555 29.6334 5.07222C28.5104 4.5 27.0403 4.5 24.1 4.5H23.75H9.75H9.4C6.45972 4.5 4.98959 4.5 3.86655 5.07222C2.8787 5.57555 2.07555 6.3787 1.57222 7.36655C1 8.48959 1 9.95972 1 12.9V15Z" fill="white"/>
<path d="M32.5 15H1M32.5 19.375V12.9C32.5 9.95972 32.5 8.48959 31.9278 7.36655C31.4244 6.3787 30.6213 5.57555 29.6334 5.07222C28.5104 4.5 27.0403 4.5 24.1 4.5H9.4C6.45972 4.5 4.98959 4.5 3.86655 5.07222C2.8787 5.57555 2.07555 6.3787 1.57222 7.36655C1 8.48959 1 9.95972 1 12.9V27.6C1 30.5403 1 32.0104 1.57222 33.1334C2.07555 34.1213 2.8787 34.9244 3.86655 35.4278C4.98959 36 6.45972 36 9.4 36H16.75M23.75 1V8M9.75 1V8M21.125 30.75L24.625 34.25L32.5 26.375" stroke="white" stroke-width="2" stroke-linecap="round" stroke-linejoin="round"/>
</g>
</svg>
